<svg id="Layer_1" data-name="Layer 1" xmlns="http://www.w3.org/2000/svg" viewBox="0 0 1200 1200"><defs><style>.cls-1{fill:#e9e8e8;}.cls-2{fill:#9dd5c0;}.cls-3{fill:#1d252e;}.cls-4{fill:#fff;}.cls-5,.cls-6,.cls-7{fill:none;stroke-linecap:round;stroke-linejoin:round;}.cls-5,.cls-6{stroke:#1d252e;}.cls-5{stroke-width:4px;}.cls-6,.cls-7{stroke-width:2.49px;}.cls-7{stroke:#fff;}</style></defs><path id="Path-141" class="cls-1" d="M441.86,462.51c110.69-74.84,365-274.07,498.13-158.15S1000.25,977,608,917C460.63,894.5,238,882.07,206.77,813,154.88,698.16,372.75,509.23,441.86,462.51Z"/><path class="cls-2" d="M1121.79,415.74l-53.72,363.94c0,.62,0,1.21-.1,1.83l-603.22-.1c0-.62,0-1.22,0-1.83l53.62-364a34.82,34.82,0,0,1,4.48-12.93,39.14,39.14,0,0,1,10.39-11.55,37.07,37.07,0,0,1,4.77-3,35.19,35.19,0,0,1,16.57-4.26L1094,384c17.64,0,30.1,14.25,27.77,31.76"/><polygon class="cls-3" points="1096.42 406.71 536.79 406.71 485.2 782.76 1044.84 782.76 1096.42 406.71"/><polygon class="cls-4" points="1088.58 413.56 1085.53 435.79 1084.86 440.7 1038.87 775.92 493.06 775.92 539.04 440.7 542.76 413.56 1088.58 413.56"/><path class="cls-3" d="M1067.42,794.87l1.75-8.47a5.86,5.86,0,0,0-5.79-6.76l-720.22,1.22a9.66,9.66,0,0,0-9.55,9.28l.59,9.1c-.12,3.93,3,4.37,6.85,4.37Z"/><path class="cls-4" d="M1067.42,794.87l-2.18,16a8.76,8.76,0,0,1-8.71,7.59L344,817.22a9.66,9.66,0,0,1-9.55-9.29l-.29-8.69c-.12-3.93,3-4.37,6.85-4.37Z"/><path class="cls-5" d="M1066.52,801.44l-1.28,9.4a8.76,8.76,0,0,1-8.71,7.59L344,817.22a9.66,9.66,0,0,1-9.55-9.29l-.14-4.32"/><polygon class="cls-2" points="1088.58 413.56 1085.53 435.79 1084.86 440.7 539.04 440.7 542.76 413.56 1088.58 413.56"/><ellipse class="cls-3" cx="554.34" cy="427" rx="5.2" ry="4.63" transform="translate(-142.08 494.91) rotate(-43.18)"/><ellipse class="cls-4" cx="571.37" cy="427" rx="5.2" ry="4.63" transform="translate(-137.47 506.56) rotate(-43.18)"/><path class="cls-4" d="M589,422.09v1a3.26,3.26,0,0,1,3.3,3.76,4.6,4.6,0,0,1-4.45,4,3.28,3.28,0,0,1-2.51-1.09,3.34,3.34,0,0,1-.79-2.67,4.61,4.61,0,0,1,4.44-4v-1m0,0A5.66,5.66,0,0,0,583.5,427a4.29,4.29,0,0,0,4.33,4.92h0a5.66,5.66,0,0,0,5.47-4.89,4.29,4.29,0,0,0-4.33-4.92Z"/><polygon class="cls-2" points="1026.92 465.89 990.26 730.93 550.11 730.93 588.4 465.89 1026.92 465.89"/><path class="cls-3" d="M783.12,636.71c.11-.63-.62-.7-1.73-.67l.13-.75a7.7,7.7,0,0,0,3.28-1l-1.49,8.45a5.21,5.21,0,0,1,1.05-.92,6,6,0,0,1,3.72-1.2c2.07,0,2.95,1.16,2.64,3l-1.2,6.76V651c0,.14.19.21.44.21h1.58l-.14.74h-5.53l.13-.74h1.21a.92.92,0,0,0,1-.89l1.2-6.76a1.78,1.78,0,0,0-2-2.21,5.18,5.18,0,0,0-4.44,2.88L782,650.36c-.06.34-.15.89.51.89h1.16l-.13.74h-5l.13-.74h1.19c.42,0,.72-.19.85-.89Z"/><path class="cls-3" d="M795.13,646l-.1.55c-.47,2.66,1,5.16,3.48,5.16,1.9,0,3.19-1.25,4.59-2.76l.57.43c-2.38,2.42-3.54,3.07-5.54,3.07-3.8,0-4.82-3.26-4.36-5.9.67-3.77,3.67-6.19,6.26-6.19s4.56,2.25,4,5.64Zm7.71-.75a4.27,4.27,0,0,0-.55-3.14,2.84,2.84,0,0,0-2.39-1c-1.88,0-3.79,1.7-4.59,4.15Z"/><path class="cls-3" d="M808.89,636.71c.11-.63-.62-.7-1.73-.67l.13-.75a7.74,7.74,0,0,0,3.29-1l-1.5,8.45a5.5,5.5,0,0,1,1-.92,6,6,0,0,1,3.72-1.2c2.07,0,3,1.16,2.64,3l-1.2,6.76V651c0,.14.18.21.43.21h1.58l-.14.74h-5.53l.14-.74H813a.91.91,0,0,0,1-.89l1.2-6.76a1.78,1.78,0,0,0-2-2.21,5.19,5.19,0,0,0-4.44,2.88l-1.07,6.09c-.06.34-.16.89.51.89h1.16l-.14.74h-5l.13-.74h1.19c.42,0,.72-.19.85-.89Z"/><path class="cls-3" d="M832.7,642.92a1.79,1.79,0,0,1-1.59,1.44,1.15,1.15,0,0,1-1.1-1.44,1.65,1.65,0,0,1,1.61-1.43A1.14,1.14,0,0,1,832.7,642.92Z"/><path class="cls-3" d="M848.27,636.71c0-.24,0-.41-.06-.5s-.69-.17-1.7-.17l.13-.75a7.81,7.81,0,0,0,3.31-1l-2.81,15.89c-.1.55-.06,1,.68,1h1.63l-.13.74h-6.23l.14-.74h1.45a1.07,1.07,0,0,0,1.2-1Z"/><path class="cls-3" d="M856.61,652.5c-4.13,0-5-3.41-4.55-6a7.13,7.13,0,0,1,6.71-6.23c2.81,0,5.09,2,4.35,6.23C862.65,649.19,860.51,652.5,856.61,652.5Zm4.73-10.13a3.15,3.15,0,0,0-2.71-1.32,4.86,4.86,0,0,0-3.3,1.35,7.12,7.12,0,0,0-1.89,4.12c-.31,1.76-.25,5.21,3.3,5.21,3.24,0,4.62-3.19,5-5.21S861.92,643.24,861.34,642.37Z"/><path class="cls-3" d="M875.92,652.16h-.49l-1.77-8.54L869.58,652h-.44l-2.25-9.76c0-.65-.67-.65-1.44-.65l.13-.74h4.25l-.13.74c-.92,0-1.49,0-1.57.48a.56.56,0,0,0,0,.17l1.68,7.65,3.59-7.41v-.05h0a2.76,2.76,0,0,0,.11-.36c.07-.36-.18-.48-.58-.48h-1l.13-.74h4.25l-.13.74c-1,0-1.48,0-1.57.5a.79.79,0,0,0,0,.34l1.52,7.49,3.93-7.59a.89.89,0,0,0,.09-.24c.07-.38-.18-.5-.55-.5h-.94l.13-.74h4.2l-.13.74c-1.14,0-1.68,0-2,.74Z"/><polygon class="cls-5" points="994.38 512.89 973.09 678.26 695.44 678.26 717.76 512.89 994.38 512.89"/><path class="cls-3" d="M780.72,561.47a2.78,2.78,0,0,0-.07-.81c-.07-.27-.29-.41-.67-.41a5.75,5.75,0,0,0-.86.13l-1.27.24c-.43.08-.84.15-1.22.2a6,6,0,0,1-.82.09c-.75,0-1.1-.57-1-1.71q3.71-1,6.88-2T788,555a1.75,1.75,0,0,1,.89,1.54,4.55,4.55,0,0,1-.12.69c-.07.24-.14.45-.2.61l-8.8,34.82H780c1.59-2.38,3.17-4.59,4.74-6.65a42.93,42.93,0,0,1,4.74-5.32,22.18,22.18,0,0,1,4.81-3.49,10.25,10.25,0,0,1,4.76-1.26,5.6,5.6,0,0,1,3.71,1.14,4.31,4.31,0,0,1,1.21,3.73,18.8,18.8,0,0,1-.29,2.27c-.15.87-.33,1.74-.54,2.6l-5.21,19.48c-.06.22-.13.49-.2.82a4.36,4.36,0,0,0-.13.73c0,.7.27,1,.92,1a3,3,0,0,0,1.15-.28,13.13,13.13,0,0,0,1.3-.65l1.13-.65a1.76,1.76,0,0,1,.82-.28q.81,0,1.05,1.62c-1,.7-2,1.36-3.09,2s-2.09,1.17-3.1,1.66a28.15,28.15,0,0,1-2.8,1.18,6.9,6.9,0,0,1-2.09.44,4,4,0,0,1-1.69-.36c-.53-.24-.76-.82-.71-1.75a6.79,6.79,0,0,1,.12-.85,6.43,6.43,0,0,1,.21-.85l5.73-21.67a18.77,18.77,0,0,0,.69-3.66c.09-1.56-.63-2.35-2.14-2.35a5.55,5.55,0,0,0-2.91,1.22,25.59,25.59,0,0,0-3.79,3.28,52.84,52.84,0,0,0-4.12,4.83c-1.4,1.85-2.73,3.77-4,5.77-.54.92-1.07,1.93-1.59,3a30.53,30.53,0,0,0-1.36,3.45,36,36,0,0,0-1,3.49,19.52,19.52,0,0,0-.45,3.09,9.29,9.29,0,0,0,.13,2.19,41.45,41.45,0,0,0-6.48,1.22c-.48-.28-.7-.6-.68-1a4.43,4.43,0,0,1,.12-.77c.07-.3.14-.55.21-.77l10.07-40.59a47.21,47.21,0,0,0,1-4.66A34.36,34.36,0,0,0,780.72,561.47Z"/><path class="cls-3" d="M816.8,595.32c-.08.54-.15,1.08-.21,1.63s-.1,1.1-.13,1.7a20.08,20.08,0,0,0,.12,3.65,8.92,8.92,0,0,0,1,3.17,5.79,5.79,0,0,0,2.11,2.23,6.63,6.63,0,0,0,3.56.85,13.87,13.87,0,0,0,4.43-.77,20.21,20.21,0,0,0,4.76-2.39,2.79,2.79,0,0,1,1.16-.57.78.78,0,0,1,.82.65,3.67,3.67,0,0,1,.15,1,34.49,34.49,0,0,1-2.88,2.28,24.43,24.43,0,0,1-3.44,2,21.9,21.9,0,0,1-3.9,1.46,15.84,15.84,0,0,1-4.25.57,10.6,10.6,0,0,1-5.49-1.25,9.06,9.06,0,0,1-3.23-3.25,11.64,11.64,0,0,1-1.47-4.34,24.31,24.31,0,0,1-.2-4.55,28.8,28.8,0,0,1,1.81-8.52,27.8,27.8,0,0,1,4.18-7.55,21.09,21.09,0,0,1,6.22-5.36,15.86,15.86,0,0,1,7.9-2,12.18,12.18,0,0,1,3.31.45,8.6,8.6,0,0,1,2.81,1.34,6.22,6.22,0,0,1,1.9,2.35,7.24,7.24,0,0,1,.58,3.49,8.87,8.87,0,0,1-1.87,5.16,13.2,13.2,0,0,1-4.57,3.57,26.29,26.29,0,0,1-6.74,2.15A55.79,55.79,0,0,1,816.8,595.32Zm.38-2.43q7.74-.64,11.13-3.17a8.19,8.19,0,0,0,3.59-6.33,4.67,4.67,0,0,0-.9-3.45,3.68,3.68,0,0,0-2.9-1.18,6.46,6.46,0,0,0-3.68,1.18,13.35,13.35,0,0,0-3.17,3.12,20,20,0,0,0-2.48,4.51A29.71,29.71,0,0,0,817.18,592.89Z"/><path class="cls-3" d="M852.26,561.47a2.79,2.79,0,0,0-.08-.81c-.07-.27-.29-.41-.67-.41a5.75,5.75,0,0,0-.86.13l-1.31.24-1.27.2a6,6,0,0,1-.81.09c-.71,0-1-.57-1-1.71,2.47-.65,4.76-1.31,6.85-2s4.19-1.42,6.29-2.23a1.85,1.85,0,0,1,.77.77,1.67,1.67,0,0,1,.12.77,5.3,5.3,0,0,1-.23,1.3l-11.84,47.32c-.07.27-.14.59-.22.94a4.83,4.83,0,0,0-.11.69.81.81,0,0,0,.92,1,2.89,2.89,0,0,0,1.19-.28c.41-.19.83-.41,1.25-.65l1.13-.65a1.79,1.79,0,0,1,.83-.28q.81,0,1,1.62a34.48,34.48,0,0,1-3.07,2c-1.09.62-2.14,1.17-3.14,1.66a24.13,24.13,0,0,1-2.82,1.18,7.29,7.29,0,0,1-2.14.44,4,4,0,0,1-1.68-.36c-.53-.24-.77-.82-.72-1.75a7.46,7.46,0,0,1,.13-.85,4.27,4.27,0,0,1,.21-.85l9.77-39.21c.41-1.57.74-3.12,1-4.66S852.21,562.34,852.26,561.47Z"/><path class="cls-3" d="M872.39,561.47a2.79,2.79,0,0,0-.08-.81c-.07-.27-.29-.41-.67-.41a5.75,5.75,0,0,0-.86.13l-1.31.24-1.27.2a6,6,0,0,1-.81.09c-.71,0-1-.57-1-1.71q3.72-1,6.85-2t6.29-2.23a1.85,1.85,0,0,1,.77.77,1.67,1.67,0,0,1,.12.77,5.3,5.3,0,0,1-.23,1.3l-11.84,47.32c-.07.27-.14.59-.21.94a4,4,0,0,0-.12.69.81.81,0,0,0,.92,1,2.89,2.89,0,0,0,1.19-.28c.41-.19.83-.41,1.25-.65l1.13-.65a1.79,1.79,0,0,1,.83-.28q.81,0,1,1.62a34.48,34.48,0,0,1-3.07,2c-1.09.62-2.14,1.17-3.14,1.66a24.13,24.13,0,0,1-2.82,1.18,7.29,7.29,0,0,1-2.14.44,4,4,0,0,1-1.68-.36c-.53-.24-.77-.82-.72-1.75a7.46,7.46,0,0,1,.13-.85,5.13,5.13,0,0,1,.21-.85L871,569.75c.41-1.57.74-3.12,1-4.66S872.34,562.34,872.39,561.47Z"/><path class="cls-3" d="M900.09,575.92a12.12,12.12,0,0,1,5.18,1,8.5,8.5,0,0,1,3.46,2.84,12,12,0,0,1,1.83,4.34,20,20,0,0,1,.39,5.44,26.72,26.72,0,0,1-2.42,10.22,24.45,24.45,0,0,1-5.15,7.27,20.45,20.45,0,0,1-6.69,4.3,19.32,19.32,0,0,1-7.06,1.42,11.33,11.33,0,0,1-4.78-.89,7.13,7.13,0,0,1-3.06-2.6,10.42,10.42,0,0,1-1.52-4.18,26.07,26.07,0,0,1-.22-5.56,25.79,25.79,0,0,1,2.36-9.74,27.57,27.57,0,0,1,5-7.47,23,23,0,0,1,6.35-4.74A14.34,14.34,0,0,1,900.09,575.92Zm-8.26,33.69a8,8,0,0,0,4.59-1.46,13.64,13.64,0,0,0,3.79-4.06,23.13,23.13,0,0,0,2.65-6.13,35.79,35.79,0,0,0,1.24-7.75,21.82,21.82,0,0,0-.78-8.12,4.05,4.05,0,0,0-4.13-3,7.58,7.58,0,0,0-4.89,1.78,15.79,15.79,0,0,0-3.79,4.63,27.47,27.47,0,0,0-2.49,6.33,33.71,33.71,0,0,0-1.11,6.9q-.28,5.35.81,8.12A4.08,4.08,0,0,0,891.83,609.61Z"/><ellipse class="cls-3" cx="608.5" cy="494.34" rx="8.46" ry="7.71" transform="translate(-175.47 488.87) rotate(-38.69)"/><line class="cls-6" x1="623.72" y1="491.51" x2="661.85" y2="491.51"/><line class="cls-6" x1="622.83" y1="498.64" x2="641.1" y2="498.64"/><ellipse class="cls-4" cx="604.29" cy="524.21" rx="8.46" ry="7.71" transform="translate(-195.07 492.79) rotate(-38.69)"/><line class="cls-7" x1="619.5" y1="522.35" x2="657.63" y2="522.35"/><line class="cls-7" x1="618.61" y1="529.48" x2="636.88" y2="529.48"/><ellipse class="cls-4" cx="600.48" cy="555.3" rx="8.46" ry="7.71" transform="translate(-215.34 497.24) rotate(-38.69)"/><line class="cls-7" x1="615.69" y1="553.44" x2="653.82" y2="553.44"/><line class="cls-7" x1="614.8" y1="560.57" x2="633.07" y2="560.57"/><ellipse class="cls-4" cx="596.27" cy="587.11" rx="8.46" ry="7.71" transform="translate(-236.15 501.58) rotate(-38.69)"/><line class="cls-7" x1="611.48" y1="584.28" x2="649.61" y2="584.28"/><line class="cls-7" x1="610.59" y1="591.41" x2="628.86" y2="591.41"/><line class="cls-5" x1="693.14" y1="471.27" x2="660.9" y2="719.56"/><path class="cls-3" d="M597.67,716.28H578.82a3.05,3.05,0,0,1-3.09-3.42l1.35-13.76a3.87,3.87,0,0,1,3.76-3.43H599.7a3.06,3.06,0,0,1,3.09,3.43l-1.35,13.76A3.87,3.87,0,0,1,597.67,716.28Z"/><polygon class="cls-2" points="584.83 700.43 583.73 711.67 595.55 705.74 584.83 700.43"/><path class="cls-3" d="M627.94,716H609.09a3,3,0,0,1-3.09-3.42l1.35-13.76a3.87,3.87,0,0,1,3.76-3.43H630a3.06,3.06,0,0,1,3.09,3.43l-1.35,13.76A3.87,3.87,0,0,1,627.94,716Z"/><polygon class="cls-2" points="618.48 700.11 615.04 700.11 613.94 711.35 617.37 711.35 618.48 700.11"/><polygon class="cls-2" points="625.12 700.11 621.68 700.11 620.58 711.35 624.01 711.35 625.12 700.11"/><path class="cls-2" d="M434.8,466.75H295a42.77,42.77,0,0,0-42.77,42.77h0a42.87,42.87,0,0,0,1.9,12.64l-27.76,27.9.41.83,43.93-6.17A42.65,42.65,0,0,0,295,552.29H434.8a42.76,42.76,0,0,0,42.76-42.77h0A42.76,42.76,0,0,0,434.8,466.75Z"/><path class="cls-4" d="M317.85,522.62h-2.79l.86-10.83c.24-3-.63-5.58-3.8-5.58a5.49,5.49,0,0,0-5.24,5.15l-.9,11.26h-2.79l2.13-26.9h2.79l-.9,11.4h.07a7.38,7.38,0,0,1,5.94-3.26c2.25,0,6,1.38,5.52,7.6Z"/><path class="cls-4" d="M336.31,521.85a13.85,13.85,0,0,1-5.84,1.14c-5.35,0-8.24-3.76-7.81-9.24.46-5.76,4-9.89,9-9.89,5.65,0,6.68,5.18,6.43,8.37-.05.64-.12,1.11-.19,1.55H325.38c-.37,5.08,2.38,7,5.67,7a12.21,12.21,0,0,0,4.89-.94Zm-1-10.16c.24-2.48-.55-5.71-4.15-5.71-3.36,0-5.1,3.19-5.56,5.71Z"/><path class="cls-4" d="M356.06,522.62h-2.79l.86-10.83c.23-3-.64-5.58-3.8-5.58a5.5,5.5,0,0,0-5.25,5.15l-.89,11.26H341.4l2.13-26.9h2.79l-.9,11.4h.06a7.39,7.39,0,0,1,5.95-3.26c2.25,0,6,1.38,5.51,7.6Z"/><path class="cls-4" d="M361.23,512.64a2.21,2.21,0,0,1,2.15-2.16,1.79,1.79,0,0,1,1.81,2.16,2.17,2.17,0,0,1-2.15,2.11A1.79,1.79,0,0,1,361.23,512.64Z"/><path class="cls-4" d="M371.67,522.62h-2.79l2.13-26.9h2.79Z"/><path class="cls-4" d="M393.52,513.31c-.54,6.83-5.27,9.72-9.34,9.72-4.71,0-8.06-3.53-7.59-9.45.49-6.26,4.67-9.72,9.34-9.72C390.94,503.86,394,507.69,393.52,513.31ZM385.66,506c-4,0-5.93,3.91-6.21,7.44-.32,4.07,1.67,7.36,5,7.36s5.91-3.29,6.24-7.43C390.92,510.15,389.66,506,385.66,506Z"/><path class="cls-4" d="M422,504.26l-7.27,18.36h-2.49l-2.16-9.21a52.78,52.78,0,0,1-1.14-6h-.1a50.64,50.64,0,0,1-2.16,6.08l-3.79,9.18h-2.52l-4-18.36h2.89l1.79,9.62c.35,2,.7,3.94.92,5.82h.1c.55-1.82,1.31-3.8,2.08-5.79l3.82-9.65h2.42l2.18,9.49c.47,2.15.85,4.1,1.14,6h.1c.48-1.82,1.14-3.73,1.92-5.92l3.44-9.52Z"/><path class="cls-4" d="M79.91,677.06c-1.3,10.66-8.3,36-7.23,42.14s61.55,44.46,95.24,64.22c14.77,1.36,28.31-1,22.8-11.08s-30.94-9.24-25-3.57c.4.38-59.36-51.63-62.16-58.16-.56-4.34,10.06-15,9.87-18.69"/><path class="cls-5" d="M78.66,683.8c-1.3,10.66-7,29.27-6,35.4s61.55,44.46,95.24,64.22c14.77,1.36,28.31-1,22.8-11.08s-30.94-9.24-25-3.57c.4.38-59.36-51.63-62.16-58.16-.56-4.34,8.35-12.22,8.35-12.22"/><path class="cls-4" d="M172.87,542.79,180,557.13c2.79,8.91,3,15.17-2.9,24.57-5.36,4.62-8.44,7.27-15.19,10.32l.41,22.37c8.79-.76,13.13-.63,17.31,1.58-6.31,6.83-15.9,14.11-31.62,14.11s-23.87-8.72-23.87-8.72l16.7-5.67-1-25.26c-7.19-4.23-8.78-7.73-9.26-15.82l1.12-9.22,31.8-22.6Z"/><path id="Path-20" class="cls-5" d="M133,618.58c2.61-1,5.22-2,7.86-2.89-.4-9.07-1.34-15.71-1-25.26-6.5-3.55-8.94-7.73-9.26-15"/><path id="Path-21" class="cls-5" d="M178.87,555.69c4.58,7.13,5.36,12.06,1.74,20.09-3.82,8.46-9.88,13.13-18.67,16.24.36,8.54.05,14.24.41,22.37a38.93,38.93,0,0,1,10.18,0"/><path id="Path-31" class="cls-3" d="M100.18,818.27q2.43-28.69,5-59.33l117.32-6.33q.77,40.44,1.48,77.55"/><path class="cls-3" d="M238.24,763.23s53.53-17,63-10.22-1.35,31.75-9.47,48.7c-16.52,34.48-105.29,41.14-123.32,40.59s8.27-63.59,8.27-63.59Z"/><path class="cls-3" d="M128.11,765.67s-53.53-17-63-10.22,0,32.47,9.47,48.71,65.28,45.3,109,36.94-21.47-57.89-21.47-57.89Z"/><path id="Path-23" class="cls-3" d="M129.54,569.93a52.08,52.08,0,0,0,26.09,2.12c10.54-3.72,8.72-15.92,8.9-24.6,6.45-7.5,13.3,4.76,16.63-9.75,4.36-18.93-11.7-27-33.12-25-6.76.64-11.94,4.35-13,11.65-4.92.89-9.21,2.1-11.33,6.76C120.61,543.66,124.59,558.3,129.54,569.93Z"/><path class="cls-2" d="M238.24,784.17c-20.27,10.51-37.3,19.63-61.6,19.52s-52.69-7.22-76.33-14.34C99,767,104.72,762.93,103,736.07c-.64-10.21-2.19-24.76-3.34-38.42-1.9-22.27-9.64-63.19-2-68.95s15.8-7.2,28.48-9.06c8.25,7.05,23.84,5.43,32.74,3.74,7.91-1.51,14.39-2.71,18-9.29A99.49,99.49,0,0,1,193.25,616a.57.57,0,0,1,.22,0,82.19,82.19,0,0,1,12.71,4.28c4,21.26,7.19,42.72,10.55,64.14C222,718.07,227.85,751.61,238.24,784.17Z"/><path class="cls-4" d="M223.17,684.76c10.61,4.12,44.3,14.38,50.83,13.41s29.41-43,54.43-82.33c10.09-14.26,15.5-29.8,1.54-31s-16.78,10.85-18.42,23.25c.64-.15-38.79,54.3-45.79,57.09-4.61.46-17.93-13.26-21.79-14"/><path class="cls-5" d="M242.87,692c14.39,4.14,26.39,6.86,31.13,6.16,6.52-1,37.36-51.67,54.43-82.33,10.09-14.26,15.5-29.8,1.54-31s-15.39,9.23-18.42,23.25c.64-.15-38.79,54.3-45.79,57.09-4.61.46-12.28-7.74-12.28-7.74"/><path class="cls-2" d="M251.12,652.53c-6.63,12.25-13.29,24.25-17.24,37.66l-17.15-5.75q-10.42-3.53-20.86-7c-.88-21-1.75-40.4-2.62-61.45h0l.22,0a82.19,82.19,0,0,1,12.71,4.28C223.13,627.56,237.66,640,251.12,652.53Z"/><path class="cls-2" d="M99.68,697.65c-10.5,5.27-19.45-22.53-19.45-22.53l8.36-37s6.66-9,11.37-11.09C116.2,619.78,101.79,696.1,99.68,697.65Z"/><path class="cls-5" d="M242.33,644.56c-11-9.64-22.82-18.56-36.15-24.26"/><path class="cls-5" d="M231.24,759.58c-6.27-24.75-10.54-49.92-14.51-75.14l8.79,2.94"/><path id="Path-22" class="cls-5" d="M167.51,550.1l6.49-.77Z"/><path id="Path-22-2" data-name="Path-22" class="cls-5" d="M167.35,555.24l6.49-.77Z"/><path class="cls-5" d="M103.74,649.63s-1.79,42-1.43,54.52"/></svg>